<svg width="26" height="24" viewBox="0 0 26 24" fill="none" xmlns="http://www.w3.org/2000/svg">
<path d="M25.7607 14.5694C27.0026 8.49813 23.2688 0.420393 17.8419 0.857025C15.5342 1.41727 14.3354 2.14198 12.327 3.99945C9.37629 7.5119 8.1753 8.12313 6.105 8.99877C4.3432 8.99287 3.56632 8.77688 3.13543 7.42755C3.0163 4.22252 3.86093 2.67482 5.68077 0C4.16842 1.64058 3.3802 2.65345 2.00416 4.5708C0.314465 7.84379 0.435635 8.23438 0.024447 9.99863C-0.206813 14.1787 1.21304 14.5181 3.84247 14.9979C6.62588 14.9643 8.15556 14.9587 10.7715 14.9979C14.0276 16.4488 12.8689 18.8823 12.8926 19.1402C12.8926 19.1402 11.9017 22.3305 6.105 22.5683C9.48329 23.5347 11.3931 24.0462 15.2965 23.9967C20.7112 22.4773 24.6528 19.9861 25.7607 14.5694Z" fill="#D9000D"/>
</svg>
